<svg xmlns="http://www.w3.org/2000/svg" width="50" height="50" viewBox="0 0 50 50"><path d="m10.128 4.497 0.061 0c0.068 0 0.136 0 0.204 0l0.148 0q0.204 0 0.409 0 0.222 0 0.444 0 0.389 0 0.778 0 0.418 0 0.835 0h0.053l0.215 0a7005.95 7005.95 0 0 1 2.483 0h0.06q0.663 0 1.327 0l0.546 0h0.061a23522.975 23522.975 0 0 1 4.565 0 15558.575 15558.575 0 0 0 5.165 -0.001h0.065q0.986 0 1.972 0h2.03q0.964 0 1.928 0a3297.825 3297.825 0 0 1 2.211 0l0.053 0q0.416 0 0.833 0 0.41 0 0.819 0 0.219 0 0.438 0 0.199 0 0.399 0 0.072 0 0.143 0c0.745 -0.002 0.745 -0.002 1.077 0.181l0.063 0.034c0.227 0.128 0.437 0.298 0.612 0.491v0.05l0.075 0.025c0.125 0.137 0.125 0.137 0.125 0.2h0.05c0.031 0.036 0.031 0.036 0.066 0.087l0.04 0.058 0.042 0.063 0.044 0.065c0.147 0.22 0.279 0.447 0.408 0.678l0.042 0.074c0.055 0.1 0.109 0.201 0.162 0.303 0.154 0.295 0.315 0.585 0.479 0.873a139.375 139.375 0 0 1 0.216 0.381l0.039 0.069a24.075 24.075 0 0 1 0.365 0.67c0.125 0.237 0.254 0.472 0.383 0.708 0.066 0.121 0.133 0.243 0.199 0.364l0.071 0.13 0.035 0.064q0.035 0.065 0.071 0.129a35.05 35.05 0 0 1 0.201 0.373c0.153 0.287 0.307 0.573 0.472 0.854 0.081 0.138 0.152 0.278 0.221 0.421 0.05 0.097 0.104 0.189 0.16 0.282 0.123 0.204 0.232 0.414 0.34 0.625a12.875 12.875 0 0 0 0.27 0.498 4.575 4.575 0 0 1 0.143 0.27c0.061 0.127 0.131 0.247 0.201 0.369 0.466 0.806 0.572 1.691 0.341 2.596 -0.03 0.11 -0.069 0.215 -0.111 0.321l-0.019 0.049c-0.199 0.491 -0.471 0.95 -0.733 1.409 -0.104 0.182 -0.203 0.367 -0.302 0.552 -0.108 0.202 -0.218 0.402 -0.336 0.598 -0.126 0.21 -0.24 0.427 -0.355 0.643a33.525 33.525 0 0 1 -0.431 0.781c-0.121 0.213 -0.237 0.428 -0.352 0.644 -0.076 0.142 -0.153 0.281 -0.237 0.417 -0.083 0.138 -0.157 0.281 -0.232 0.423 -0.121 0.23 -0.246 0.457 -0.375 0.683 -0.113 0.199 -0.222 0.399 -0.33 0.6 -0.094 0.175 -0.191 0.348 -0.289 0.52 -0.097 0.171 -0.192 0.343 -0.283 0.517 -0.103 0.199 -0.213 0.395 -0.324 0.59A25.675 25.675 0 0 0 40.388 25.75a26.25 26.25 0 0 1 -0.32 0.578c-0.129 0.226 -0.252 0.455 -0.373 0.684 -0.119 0.225 -0.24 0.447 -0.374 0.664 -0.091 0.148 -0.17 0.302 -0.251 0.455l-0.063 0.12 -0.033 0.062c-0.081 0.154 -0.165 0.306 -0.25 0.458a27.775 27.775 0 0 0 -0.22 0.402c-0.119 0.221 -0.239 0.441 -0.369 0.657 -0.127 0.212 -0.242 0.431 -0.358 0.648 -0.138 0.258 -0.28 0.514 -0.426 0.768 -0.082 0.143 -0.157 0.288 -0.229 0.436 -0.069 0.139 -0.149 0.272 -0.226 0.406 -0.097 0.169 -0.191 0.339 -0.283 0.511 -0.1 0.187 -0.203 0.372 -0.309 0.556 -0.136 0.236 -0.265 0.475 -0.392 0.716a15.75 15.75 0 0 1 -0.261 0.472c-0.082 0.142 -0.161 0.285 -0.24 0.429q-0.065 0.118 -0.13 0.236l-0.027 0.048a128.525 128.525 0 0 1 -0.273 0.492 81.55 81.55 0 0 0 -0.376 0.684c-0.131 0.24 -0.264 0.479 -0.397 0.718 -0.169 0.304 -0.338 0.608 -0.503 0.914 -0.479 0.887 -0.479 0.887 -0.605 1.061h-0.05l-0.016 0.044c-0.06 0.098 -0.153 0.146 -0.259 0.181 -0.313 0.036 -0.521 -0.064 -0.764 -0.253 -0.21 -0.181 -0.388 -0.385 -0.553 -0.608l-0.031 -0.042c-0.176 -0.245 -0.325 -0.509 -0.473 -0.771a104.8 104.8 0 0 0 -0.131 -0.23l-0.026 -0.045a24.675 24.675 0 0 0 -0.208 -0.357c-0.105 -0.177 -0.206 -0.355 -0.306 -0.534a349.525 349.525 0 0 0 -0.339 -0.605l-0.085 -0.153a34.175 34.175 0 0 0 -0.481 -0.833c-0.2 -0.336 -0.39 -0.676 -0.578 -1.019 -0.21 -0.38 -0.422 -0.758 -0.642 -1.133 -0.22 -0.374 -0.432 -0.753 -0.643 -1.132a50.7 50.7 0 0 0 -0.184 -0.326c-0.637 -1.123 -0.809 -2.237 -0.479 -3.492 0.104 -0.362 0.294 -0.688 0.472 -1.017l0.04 -0.073a73.6 73.6 0 0 1 0.147 -0.268c0.146 -0.266 0.284 -0.537 0.424 -0.807 0.159 -0.308 0.323 -0.614 0.489 -0.919 0.113 -0.208 0.222 -0.418 0.331 -0.628 0.1 -0.192 0.203 -0.383 0.307 -0.573 0.094 -0.172 0.185 -0.346 0.275 -0.52 0.139 -0.27 0.284 -0.536 0.43 -0.802 0.109 -0.2 0.216 -0.4 0.317 -0.604 0.154 -0.31 0.318 -0.615 0.484 -0.919 0.161 -0.292 0.313 -0.589 0.466 -0.885 0.16 -0.31 0.324 -0.617 0.491 -0.923 0.107 -0.196 0.21 -0.394 0.313 -0.592a22.625 22.625 0 0 1 0.256 -0.478c0.126 -0.229 0.247 -0.461 0.366 -0.694 0.101 -0.197 0.205 -0.393 0.312 -0.587 0.121 -0.22 0.237 -0.442 0.352 -0.666a34.9 34.9 0 0 1 0.5 -0.938c0.218 -0.395 0.218 -0.395 0.423 -0.796 0.11 -0.222 0.225 -0.441 0.34 -0.66a152.975 152.975 0 0 0 0.099 -0.189c0.13 -0.247 0.262 -0.493 0.394 -0.739 0.134 -0.248 0.266 -0.497 0.397 -0.746a82.075 82.075 0 0 1 0.388 -0.727c0.099 -0.184 0.196 -0.368 0.288 -0.555 0.058 -0.115 0.121 -0.227 0.183 -0.34 0.12 -0.219 0.236 -0.439 0.35 -0.661 0.122 -0.237 0.246 -0.472 0.375 -0.706 0.117 -0.213 0.228 -0.429 0.339 -0.644 0.075 -0.145 0.151 -0.287 0.233 -0.428 0.072 -0.124 0.138 -0.25 0.2 -0.38l0.025 -0.052c0.09 -0.191 0.16 -0.421 0.1 -0.631A1.95 1.95 0 0 0 37.7 6.325l-0.021 -0.051c-0.035 -0.06 -0.072 -0.087 -0.13 -0.126l-0.054 -0.037c-0.228 -0.12 -0.444 -0.123 -0.696 -0.122l-0.122 -0.001c-0.111 -0.001 -0.223 -0.001 -0.334 -0.001 -0.121 0 -0.242 -0.001 -0.363 -0.002q-0.31 -0.001 -0.621 -0.002 -0.373 -0.001 -0.747 -0.003 -0.702 -0.003 -1.404 -0.005l-0.091 0c-0.742 -0.001 -1.484 -0.001 -2.225 -0.001q-0.618 0 -1.235 0h-0.206q-1.595 0 -3.19 -0.001l-0.071 0q-1.793 -0.001 -3.586 -0.002l-0.081 0a18362.275 18362.275 0 0 1 -2.567 -0.002l-0.084 0c-0.907 -0.001 -1.813 -0.001 -2.72 -0.002a3592.175 3592.175 0 0 1 -3.221 -0.002l-0.079 0q-0.627 -0.001 -1.254 -0.001 -0.626 0 -1.253 -0.001 -0.371 -0.001 -0.743 0 -0.248 0 -0.496 -0.001a44.25 44.25 0 0 0 -0.282 0c-0.101 0 -0.203 0 -0.304 -0.001l-0.088 0.001c-0.181 -0.002 -0.32 -0.033 -0.482 -0.113 -0.01 -0.142 0.019 -0.237 0.086 -0.359l0.027 -0.052q0.028 -0.054 0.057 -0.108a19.5 19.5 0 0 0 0.09 -0.17c0.086 -0.164 0.173 -0.326 0.265 -0.486h0.05v-0.05a14.125 14.125 0 0 1 0.116 -0.048l0.065 -0.027c0.139 -0.049 0.277 -0.053 0.423 -0.052" fill="#183E91"/><path d="M34.4 7.25c0.175 0.173 0.227 0.379 0.238 0.619 -0.018 0.657 -0.316 1.279 -0.634 1.84 -0.087 0.154 -0.168 0.311 -0.249 0.469 -0.23 0.446 -0.466 0.889 -0.71 1.327 -0.21 0.376 -0.412 0.756 -0.61 1.138 -0.137 0.265 -0.279 0.527 -0.422 0.789 -0.1 0.182 -0.199 0.364 -0.298 0.547l-0.078 0.142c-0.157 0.287 -0.311 0.576 -0.461 0.867a17.875 17.875 0 0 1 -0.385 0.707 12.475 12.475 0 0 0 -0.244 0.447c-0.58 1.113 -1.366 1.853 -2.575 2.241 -0.212 0.064 -0.422 0.098 -0.643 0.105l-0.071 0.003c-0.077 0.003 -0.155 0.005 -0.232 0.008l-0.08 0.003c-0.209 0.007 -0.418 0.012 -0.628 0.017l-0.21 0.006 -0.452 0.012a2255.275 2255.275 0 0 0 -1.375 0.037 1888.55 1888.55 0 0 0 -3.014 0.084l-1.336 0.038 -0.068 0.002c-0.83 0.024 -1.66 0.047 -2.49 0.069l-0.084 0.002a781.475 781.475 0 0 1 -2.075 0.054l-0.057 0.001c-0.997 0.025 -1.993 0.053 -2.989 0.082l-0.585 0.017c-1.099 0.031 -2.198 0.062 -3.297 0.092l-0.371 0.01 -0.968 0.027 -0.062 0.002 -0.122 0.003q-0.147 0.004 -0.293 0.008c-0.176 0.005 -0.353 0.01 -0.529 0.012 -0.082 0.001 -0.163 0.003 -0.245 0.004a12.525 12.525 0 0 1 -0.115 0.001c-0.296 0.002 -0.604 0.026 -0.84 0.224 -0.115 0.123 -0.166 0.275 -0.165 0.442 0.011 0.245 0.108 0.437 0.222 0.648 0.028 0.051 0.054 0.102 0.081 0.154 0.112 0.216 0.231 0.428 0.353 0.639a47.575 47.575 0 0 1 0.293 0.518c0.113 0.202 0.227 0.405 0.341 0.606l0.04 0.071L6.025 22.6a197.475 197.475 0 0 1 0.5 0.888c0.337 0.602 0.337 0.602 0.681 1.199 0.084 0.145 0.165 0.291 0.244 0.439a60.725 60.725 0 0 0 0.584 1.053q0.06 0.106 0.119 0.211c0.113 0.201 0.227 0.402 0.342 0.602 0.182 0.316 0.361 0.634 0.536 0.953a37.75 37.75 0 0 0 0.358 0.637c0.141 0.245 0.278 0.492 0.416 0.739q0.111 0.198 0.221 0.396l0.044 0.079a133.55 133.55 0 0 0 0.292 0.518 154.675 154.675 0 0 1 0.342 0.608l0.045 0.08a66.125 66.125 0 0 1 0.19 0.341c0.121 0.219 0.244 0.436 0.37 0.652a25 25 0 0 1 0.378 0.677c0.092 0.17 0.189 0.338 0.287 0.505 0.125 0.213 0.246 0.428 0.363 0.645 0.102 0.188 0.206 0.374 0.312 0.56 0.1 0.176 0.199 0.353 0.298 0.53 0.014 0.026 0.029 0.052 0.044 0.079l0.177 0.316a226.8 226.8 0 0 0 0.557 0.99 140.7 140.7 0 0 1 0.213 0.378q0.1 0.177 0.2 0.354a175.275 175.275 0 0 1 0.431 0.766A120.125 120.125 0 0 0 14.863 38.313c0.202 0.357 0.402 0.715 0.602 1.072 0.135 0.242 0.271 0.484 0.409 0.724 0.149 0.26 0.294 0.522 0.44 0.784q0.116 0.209 0.234 0.417 0.07 0.124 0.139 0.249c0.101 0.184 0.204 0.367 0.312 0.547 0.109 0.183 0.212 0.37 0.313 0.558a21.8 21.8 0 0 0 0.262 0.468c0.11 0.191 0.218 0.382 0.325 0.573l0.044 0.079 0.179 0.32 0.133 0.239 0.043 0.078c0.071 0.127 0.143 0.255 0.216 0.381l0.042 0.073q0.039 0.068 0.079 0.136l0.035 0.061 0.031 0.053c0.053 0.106 0.058 0.207 0.05 0.325 -0.038 0.05 -0.062 0.072 -0.123 0.087l-0.057 0.004 -0.067 0.005 -0.078 0.004 -0.092 0.005c-0.086 0.004 -0.172 0.007 -0.258 0.01a21.9 21.9 0 0 0 -0.161 0.006c-0.44 0.017 -0.44 0.017 -0.591 -0.122 -0.186 -0.181 -0.308 -0.405 -0.428 -0.633 -0.104 -0.194 -0.209 -0.387 -0.319 -0.578a53.5 53.5 0 0 1 -0.331 -0.584l-0.045 -0.081 -0.086 -0.154a88.975 88.975 0 0 0 -0.446 -0.788c-0.196 -0.342 -0.389 -0.685 -0.582 -1.029 -0.083 -0.147 -0.166 -0.294 -0.249 -0.441a212.925 212.925 0 0 1 -0.556 -0.989l-0.045 -0.081a129.075 129.075 0 0 0 -0.305 -0.541A60.325 60.325 0 0 1 13.65 39.05c-0.148 -0.268 -0.299 -0.534 -0.45 -0.8 -0.312 -0.55 -0.312 -0.55 -0.452 -0.803 -0.101 -0.182 -0.203 -0.362 -0.307 -0.542a88.2 88.2 0 0 1 -0.604 -1.071 65.975 65.975 0 0 0 -0.455 -0.807c-0.127 -0.221 -0.251 -0.443 -0.376 -0.665a108.5 108.5 0 0 0 -0.301 -0.535A60.25 60.25 0 0 1 10.425 33.325c-0.148 -0.268 -0.299 -0.534 -0.45 -0.8q-0.084 -0.148 -0.167 -0.295l-0.041 -0.072c-0.083 -0.147 -0.165 -0.294 -0.246 -0.442a15.05 15.05 0 0 0 -0.242 -0.422c-0.109 -0.183 -0.211 -0.37 -0.313 -0.558 -0.099 -0.183 -0.202 -0.365 -0.306 -0.546A28.525 28.525 0 0 1 8.425 29.775a36.1 36.1 0 0 0 -0.27 -0.48 103.025 103.025 0 0 1 -0.717 -1.273 43.5 43.5 0 0 0 -0.324 -0.573c-0.101 -0.175 -0.199 -0.352 -0.297 -0.529 -0.142 -0.257 -0.288 -0.512 -0.435 -0.767a28.275 28.275 0 0 1 -0.29 -0.512 44 44 0 0 0 -0.247 -0.44 75.4 75.4 0 0 1 -0.359 -0.642 50.625 50.625 0 0 0 -0.381 -0.675A29.4 29.4 0 0 1 4.875 23.475a36.15 36.15 0 0 0 -0.27 -0.48 101.775 101.775 0 0 1 -0.699 -1.241c-0.101 -0.183 -0.204 -0.365 -0.308 -0.546 -0.059 -0.104 -0.117 -0.209 -0.175 -0.314 -0.063 -0.115 -0.127 -0.229 -0.195 -0.341 -0.087 -0.143 -0.166 -0.29 -0.245 -0.437a8.375 8.375 0 0 0 -0.223 -0.384c-0.08 -0.132 -0.152 -0.266 -0.219 -0.405l-0.025 -0.051c-0.104 -0.223 -0.123 -0.434 -0.122 -0.678l0 -0.084c0.005 -0.364 0.088 -0.698 0.207 -1.04l0.018 -0.053c0.107 -0.307 0.253 -0.586 0.413 -0.869 0.048 -0.085 0.094 -0.17 0.141 -0.255 0.154 -0.281 0.31 -0.562 0.469 -0.841 0.116 -0.205 0.229 -0.411 0.341 -0.619 0.175 -0.326 0.356 -0.647 0.539 -0.968l0.026 -0.046 0.053 -0.093a53.825 53.825 0 0 0 0.398 -0.708c0.044 -0.08 0.089 -0.159 0.133 -0.238 0.283 -0.503 0.564 -1.006 0.844 -1.511 0.631 -1.138 0.631 -1.138 0.92 -1.642q0.113 -0.197 0.224 -0.394l0.027 -0.049a20.975 20.975 0 0 0 0.13 -0.234c0.09 -0.164 0.186 -0.314 0.307 -0.457 0.045 -0.052 0.045 -0.052 0.092 -0.125h0.05l0.02 -0.045C7.974 7.905 8.662 7.612 9.1 7.475c0.101 -0.028 0.203 -0.052 0.306 -0.073l0.071 -0.015c0.415 -0.081 0.844 -0.066 1.265 -0.069q0.096 -0.001 0.191 -0.001 0.228 -0.002 0.455 -0.003a1050.475 1050.475 0 0 0 0.989 -0.007c0.614 -0.004 1.227 -0.011 1.841 -0.018q1.184 -0.014 2.368 -0.025l0.08 -0.001 0.909 -0.008q0.902 -0.008 1.804 -0.016l0.093 -0.001q1.37 -0.012 2.74 -0.026l0.083 -0.001 1.29 -0.013c2.236 -0.023 2.236 -0.023 3.163 -0.03l0.05 0q0.408 -0.003 0.816 -0.006c1.479 -0.01 2.958 -0.027 4.437 -0.045l0.359 -0.004 0.069 -0.001a1597.025 1597.025 0 0 0 0.648 -0.008l0.113 -0.001c0.959 -0.011 0.959 -0.011 1.161 0.146" fill="#183E91"/><path d="M46.942 16.595c0.117 0.06 0.179 0.185 0.245 0.296l0.049 0.081 0.05 0.084 0.05 0.083c0.335 0.561 0.335 0.561 0.261 0.858 -0.081 0.269 -0.235 0.504 -0.375 0.746 -0.076 0.132 -0.147 0.266 -0.219 0.4 -0.098 0.182 -0.198 0.362 -0.301 0.541 -0.082 0.144 -0.161 0.29 -0.24 0.436a25.525 25.525 0 0 1 -0.223 0.403c-0.109 0.192 -0.214 0.387 -0.319 0.581a27.35 27.35 0 0 1 -0.269 0.487 13.975 13.975 0 0 0 -0.165 0.3 12.55 12.55 0 0 1 -0.188 0.338c-0.109 0.19 -0.214 0.381 -0.316 0.574a39.65 39.65 0 0 1 -0.299 0.55c-0.061 0.11 -0.121 0.221 -0.181 0.331a45.1 45.1 0 0 1 -0.429 0.772c-0.111 0.197 -0.219 0.395 -0.326 0.594 -0.095 0.176 -0.192 0.35 -0.291 0.523 -0.103 0.181 -0.204 0.364 -0.3 0.548 -0.075 0.143 -0.153 0.285 -0.232 0.426A47.3 47.3 0 0 0 42.675 27a55.65 55.65 0 0 1 -0.275 0.5 57.65 57.65 0 0 0 -0.273 0.497c-0.42 0.77 -0.42 0.77 -0.544 0.974 -0.1 0.167 -0.189 0.341 -0.279 0.513 -0.108 0.208 -0.218 0.415 -0.333 0.619 -0.084 0.149 -0.166 0.3 -0.248 0.45a40.35 40.35 0 0 1 -0.318 0.573c-0.093 0.165 -0.184 0.33 -0.276 0.495q-0.108 0.195 -0.216 0.389c-0.101 0.181 -0.201 0.362 -0.3 0.544a12.225 12.225 0 0 1 -0.091 0.162c-0.105 0.185 -0.205 0.371 -0.299 0.562 -0.07 0.142 -0.148 0.279 -0.227 0.417 -0.052 0.091 -0.103 0.182 -0.153 0.275 -0.153 0.281 -0.307 0.561 -0.465 0.84 -0.103 0.183 -0.203 0.368 -0.303 0.553 -0.117 0.216 -0.235 0.432 -0.36 0.644 -0.111 0.189 -0.212 0.384 -0.316 0.577 -0.126 0.235 -0.253 0.469 -0.383 0.702A45.7 45.7 0 0 0 36.775 37.725a55.8 55.8 0 0 1 -0.275 0.5 61.775 61.775 0 0 0 -0.27 0.491l-0.038 0.069q-0.1 0.183 -0.199 0.367c-0.149 0.277 -0.301 0.551 -0.46 0.822 -0.093 0.16 -0.181 0.322 -0.266 0.486l-0.032 0.061q-0.031 0.059 -0.062 0.118c-0.07 0.135 -0.145 0.267 -0.221 0.399 -0.093 0.161 -0.182 0.324 -0.272 0.487l-0.052 0.095a144.35 144.35 0 0 0 -0.35 0.639 57.625 57.625 0 0 1 -0.261 0.474 93.025 93.025 0 0 0 -0.227 0.411l-0.034 0.063a39.275 39.275 0 0 0 -0.181 0.334c-0.367 0.681 -0.696 1.181 -1.466 1.428 -0.371 0.11 -0.751 0.159 -1.137 0.172l-0.085 0.003c-0.31 0.01 -0.62 0.011 -0.93 0.011l-0.146 0c-0.215 0 -0.43 0 -0.645 0l-0.17 0q-0.727 -0.001 -1.454 -0.002 -0.55 -0.001 -1.099 -0.001 -0.84 -0.001 -1.679 -0.003c-0.293 -0.001 -0.586 -0.001 -0.879 -0.002a196.075 196.075 0 0 1 -0.757 -0.002c-0.13 -0.001 -0.26 -0.001 -0.39 -0.001 -1.103 0.002 -1.921 -0.195 -2.754 -0.956C19.95 44.15 19.95 44.15 19.95 44.1h-0.05a2.375 2.375 0 0 1 -0.122 -0.145l-0.037 -0.047c-0.236 -0.309 -0.427 -0.645 -0.611 -0.988 -0.083 -0.154 -0.17 -0.303 -0.263 -0.451 -0.069 -0.112 -0.131 -0.228 -0.193 -0.344a40.275 40.275 0 0 0 -0.458 -0.82A51.9 51.9 0 0 1 17.925 40.788a77.625 77.625 0 0 0 -0.568 -0.999l-0.097 -0.168 -0.049 -0.084c-0.099 -0.172 -0.196 -0.344 -0.292 -0.517 -0.085 -0.153 -0.173 -0.304 -0.261 -0.455 -0.16 -0.272 -0.314 -0.548 -0.466 -0.824 -0.124 -0.224 -0.25 -0.447 -0.377 -0.67 -0.04 -0.071 -0.081 -0.143 -0.121 -0.215 -0.149 -0.265 -0.3 -0.529 -0.457 -0.79 -0.078 -0.131 -0.153 -0.264 -0.226 -0.398 -0.056 -0.103 -0.115 -0.204 -0.174 -0.305 -0.086 -0.148 -0.17 -0.296 -0.251 -0.447 -0.05 -0.092 -0.103 -0.183 -0.155 -0.274a27.075 27.075 0 0 1 -0.198 -0.353A80.125 80.125 0 0 0 13.931 33.75l-0.04 -0.071c-0.062 -0.11 -0.126 -0.22 -0.191 -0.329 -0.066 -0.109 -0.127 -0.22 -0.187 -0.331 -0.06 -0.111 -0.122 -0.22 -0.184 -0.33l-0.042 -0.074A159.175 159.175 0 0 0 12.95 32.025c-0.205 -0.359 -0.409 -0.718 -0.611 -1.079a51.65 51.65 0 0 0 -0.573 -1.001q-0.067 -0.115 -0.135 -0.23l-0.042 -0.072c-0.051 -0.088 -0.099 -0.176 -0.147 -0.265 -0.265 -0.487 -0.539 -0.969 -0.816 -1.449l-0.047 -0.081c-0.068 -0.118 -0.136 -0.235 -0.207 -0.351 -0.065 -0.107 -0.125 -0.216 -0.184 -0.326a35.75 35.75 0 0 0 -0.639 -1.132c-0.105 -0.18 -0.206 -0.361 -0.306 -0.544 -0.079 -0.144 -0.163 -0.283 -0.251 -0.423 -0.042 -0.07 -0.079 -0.14 -0.114 -0.213 -0.074 -0.151 -0.157 -0.295 -0.242 -0.44a35.225 35.225 0 0 1 -0.274 -0.478 132.375 132.375 0 0 0 -0.427 -0.75l-0.116 -0.203 -0.039 -0.069 -0.077 -0.134a48.475 48.475 0 0 0 -0.164 -0.285C7.144 21.813 7.144 21.813 7.225 21.5c0.04 -0.09 0.096 -0.168 0.15 -0.25h0.05v-0.05c0.516 -0.395 1.218 -0.448 1.845 -0.462l0.122 -0.003q0.169 -0.004 0.338 -0.007 0.108 -0.002 0.217 -0.005c1.165 -0.025 2.329 -0.04 3.494 -0.055l0.562 -0.007c0.474 -0.006 0.948 -0.014 1.422 -0.025 0.396 -0.009 0.792 -0.017 1.189 -0.017q0.085 0 0.171 -0.001c0.339 -0.003 0.66 0.004 0.991 0.082l0.073 0.017c0.06 0.015 0.119 0.032 0.177 0.05 0.031 0.01 0.031 0.01 0.063 0.019 0.614 0.196 1.125 0.573 1.587 1.014l0.058 0.055c0.193 0.187 0.328 0.4 0.462 0.632 0.037 0.064 0.074 0.129 0.112 0.193l0.058 0.1c0.094 0.162 0.19 0.323 0.285 0.484a112.3 112.3 0 0 1 0.387 0.657 72.8 72.8 0 0 0 0.478 0.806c0.118 0.195 0.234 0.391 0.349 0.588a16.85 16.85 0 0 0 0.264 0.434c0.041 0.069 0.08 0.138 0.118 0.209 0.074 0.137 0.152 0.272 0.232 0.406l0.042 0.072a108.25 108.25 0 0 0 0.322 0.538 46.575 46.575 0 0 1 0.256 0.432 101.75 101.75 0 0 0 0.269 0.456 104.85 104.85 0 0 1 0.455 0.774c0.149 0.257 0.301 0.512 0.452 0.768a613.925 613.925 0 0 1 0.196 0.331 109.875 109.875 0 0 1 0.261 0.443l0.11 0.188c0.123 0.211 0.248 0.42 0.374 0.629 0.111 0.184 0.219 0.37 0.327 0.556a98.225 98.225 0 0 0 0.382 0.649q0.086 0.146 0.172 0.292a49.9 49.9 0 0 0 0.298 0.5 43.675 43.675 0 0 1 0.33 0.558c0.235 0.403 0.47 0.804 0.717 1.2 0.078 0.126 0.153 0.253 0.222 0.384 0.079 0.147 0.166 0.289 0.251 0.432 0.053 0.089 0.105 0.177 0.157 0.266l0.084 0.142q0.121 0.204 0.241 0.408c0.106 0.18 0.212 0.36 0.319 0.539a145.275 145.275 0 0 1 0.428 0.727c0.224 0.383 0.449 0.765 0.677 1.145a41.525 41.525 0 0 1 0.225 0.381 123.25 123.25 0 0 0 0.294 0.498 144.625 144.625 0 0 1 0.428 0.727c0.129 0.22 0.258 0.44 0.388 0.659l0.038 0.065a44.775 44.775 0 0 0 0.184 0.309 9 9 0 0 1 0.129 0.22c0.142 0.25 0.292 0.492 0.579 0.588 0.161 0.032 0.308 0.016 0.45 -0.068 0.219 -0.156 0.345 -0.363 0.472 -0.594l0.046 -0.083q0.061 -0.111 0.123 -0.221 0.038 -0.069 0.076 -0.138a215.425 215.425 0 0 0 0.491 -0.892l0.032 -0.059c0.087 -0.158 0.175 -0.314 0.264 -0.47 0.113 -0.199 0.222 -0.4 0.328 -0.603 0.063 -0.12 0.128 -0.237 0.199 -0.352 0.085 -0.14 0.16 -0.285 0.236 -0.43 0.104 -0.198 0.21 -0.394 0.322 -0.587 0.112 -0.194 0.216 -0.392 0.322 -0.59a34.5 34.5 0 0 1 0.433 -0.785c0.112 -0.198 0.221 -0.398 0.329 -0.598a38.9 38.9 0 0 1 0.273 -0.498A49.225 49.225 0 0 0 36.725 34.825a75.875 75.875 0 0 1 0.37 -0.671q0.074 -0.132 0.147 -0.265a717 717 0 0 1 0.302 -0.543l0.072 -0.13q0.143 -0.258 0.284 -0.516l0.071 -0.13 0.035 -0.065a186.85 186.85 0 0 1 0.401 -0.733q0.067 -0.122 0.135 -0.245a48.525 48.525 0 0 1 0.367 -0.659c0.126 -0.221 0.248 -0.445 0.369 -0.669 0.095 -0.176 0.192 -0.35 0.291 -0.523 0.103 -0.181 0.204 -0.363 0.3 -0.548 0.14 -0.267 0.288 -0.529 0.437 -0.79a17.6 17.6 0 0 0 0.291 -0.529l0.051 -0.096 0.026 -0.048a7.575 7.575 0 0 1 0.171 -0.303c0.06 -0.102 0.112 -0.202 0.155 -0.313h0.05l0.021 -0.066c0.028 -0.08 0.061 -0.15 0.101 -0.224l0.043 -0.08 0.046 -0.085 0.047 -0.087a19.025 19.025 0 0 1 0.324 -0.573c0.129 -0.218 0.247 -0.442 0.367 -0.665 0.434 -0.808 0.434 -0.808 0.638 -1.154 0.083 -0.142 0.16 -0.287 0.236 -0.432 0.121 -0.23 0.246 -0.457 0.375 -0.683 0.113 -0.2 0.223 -0.401 0.332 -0.604 0.103 -0.192 0.211 -0.381 0.32 -0.569a6.625 6.625 0 0 0 0.216 -0.408c0.046 -0.091 0.097 -0.18 0.149 -0.268 0.085 -0.147 0.165 -0.296 0.246 -0.445a46.375 46.375 0 0 1 0.322 -0.588c0.083 -0.148 0.164 -0.297 0.245 -0.446a34.85 34.85 0 0 1 0.288 -0.519c0.08 -0.141 0.157 -0.283 0.234 -0.425 0.365 -0.67 0.365 -0.67 0.518 -0.921 0.091 -0.152 0.172 -0.31 0.255 -0.467q0.051 -0.096 0.102 -0.192a17.15 17.15 0 0 0 0.052 -0.097c0.235 -0.444 0.235 -0.444 0.417 -0.456" fill="#183E91"/></svg>